<svg aria-hidden="true" focusable="false" style="display:none" 
    xmlns="http://www.w3.org/2000/svg">
    <symbol id="reorder" viewBox="0 0 50 50">
        <path d="M25 0c-.254 0-.523.086-.719.281l-7 7a1.005 1.005 0 0 0-.218 1.094c.156.371.535.625.937.625h14.031c.551 0 1-.45 1-1a1.01 1.01 0 0 0-.437-.813L25.719.282A1.015 1.015 0 0 0 25 0zM2 13v4h46v-4zm0 10v4h46v-4zm0 10v4h46v-4zm16 8c-.402 0-.781.25-.938.625-.156.375-.066.809.22 1.094l7 7c.195.195.46.281.718.281.258 0 .523-.086.719-.281l7-7c.285-.285.375-.719.218-1.094A1.023 1.023 0 0 0 32 41z"/>
    </symbol>
</svg>